mtllib materials.mtl
v 0.0576818 -0.007885039 -0.326442
v 0.07150146 -0.02690619 -0.326442
v 0.07150155 -0.02690613 -1.577549
v 0.05768192 -0.007884979 -1.577549
v 0.09386215 -0.01964074 -0.326442
v 0.09386224 -0.01964068 -1.577549
v 0.09386215 0.003870666 -0.326442
v 0.09386224 0.003870726 -1.577549
v 0.07150146 0.01113611 -0.326442
v 0.07150158 0.01113617 -1.577549
v 0.07403234 -0.01911676 -1.587549
v 0.06587201 -0.00788492 -1.587549
v 0.08723611 -0.0148266 -1.587549
v 0.08723611 -0.0009433031 -1.587549
v 0.0740324 0.00334686 -1.587549
v 0.1554371 -0.05434024 -0.2919152
v 0.1187037 -0.03827101 -0.3666094
v 0.03495952 -0.0500657 -0.3601769
v -0.1097335 -0.03649813 0.2628396
v -0.1111896 0.03708804 0.2607611
v -0.07222939 0.01168853 0.3433906
v 0.008679926 -0.06356972 -0.2806167
v -0.0438683 -0.05653614 -0.01297099
v 0.002521038 0.03115106 -0.2927811
v 0.1474915 0.03977948 -0.2951257
v -0.04857004 0.04888463 -0.01753058
v 0.2018591 -0.05517632 -0.02015156
v 0.1968685 0.05336767 -0.03076614
v 0.2669997 0.04379511 0.2332601
v 0.2684558 -0.02979112 0.2353388
v 0.1159556 0.0227592 -0.3657076
v 0.0303466 0.0136261 -0.3532035
v 0.2357317 -0.01044393 0.3215151
v -0.08003068 0.0429213 0.1852776
v -0.06006438 0.01950568 0.1585301
v -0.06355542 0.05042857 0.1850322
v -0.07533562 0.01048481 0.1591296
v -0.07840759 0.003856003 0.2004153
v -0.06168658 0.01044476 0.1975102
v -0.03092277 0.02259886 0.1724014
v -0.04644448 0.05407691 0.187224
v -0.04683554 0.01449895 0.2010558
v 0.03329238 0.031564 0.1665089
v 0.008324862 0.06074226 0.1833359
v 0.007519305 0.02147186 0.1980015
v 0.02899373 0.03103876 0.1648662
v 0.02981833 0.06336868 0.1915493
v 0.02901289 0.02409828 0.206215
v 0.2373691 0.02644044 0.1639978
v 0.2373883 0.0194999 0.205347
v 0.2398937 0.05030328 0.1926882
v -0.07450914 -0.03982437 0.1687579
v -0.05834025 -0.01081353 0.1924076
v -0.05794156 -0.04630357 0.1721328
v -0.07371849 -0.002854943 0.1885197
v -0.07241017 -0.004269719 0.1466368
v -0.05592024 -0.009335518 0.152456
v -0.02776414 -0.01497215 0.1824568
v -0.04059041 -0.04942346 0.1724521
v -0.04065222 -0.01322299 0.1513001
v 0.03564927 -0.019391 0.1965244
v 0.01359099 -0.05244386 0.1831514
v 0.01321894 -0.01672286 0.1612023
v 0.03118148 -0.01878566 0.1975852
v 0.03593007 -0.05547029 0.1778474
v 0.0355581 -0.01974928 0.1558982
v 0.237949 -0.003510535 0.2189402
v 0.2423258 -0.004474103 0.1772528
v 0.2443512 -0.03218091 0.1957892
vn -0.8090171 -0.5877852 -1.034011E-07
vn 0.3090176 -0.9510564 5.277544E-08
vn 1 1.97187E-07 1.407441E-07
vn 0.3090172 0.9510565 5.239414E-08
vn -0.8090172 0.5877851 -1.059569E-07
vn -1.14098E-08 -5.960464E-08 1
vn -0.6744145 -0.4899875 -0.5523382
vn 0.2576031 -0.7928143 -0.552346
vn 0.8336123 3.317435E-08 -0.5523502
vn 0.2576033 0.7928167 -0.5523425
vn -0.6744103 0.4899923 -0.552339
vn 1.087808E-06 5.960484E-08 -1
vn 0.114769 -0.9580675 -0.2625543
vn -0.9051824 -0.005907723 0.4249822
vn 0.06571589 -0.9970719 0.03910489
vn -0.06045894 0.9953228 -0.07534795
vn -0.9805124 -0.0864123 -0.1764322
vn 0.9823873 0.02708834 -0.1848822
vn -0.01534186 0.9990986 0.03958035
vn -0.9750567 -0.02552319 -0.2204836
vn 0.02334665 -0.9966811 0.07798538
vn 0.9668143 0.01645376 -0.2549498
vn 0.9077283 0.04703376 -0.416914
vn -0.1299566 0.9755599 -0.1771843
vn -0.910384 -0.02069037 -0.4132468
vn -0.1453661 0.008072871 -0.9893451
vn -0.02079945 0.9986572 -0.04744637
vn 0.005416828 -0.9999774 -0.004001618
vn 0.008333993 -0.995277 0.09671708
vn -0.980197 -0.05198113 -0.191081
vn -0.9721382 -0.05323083 -0.2282848
vn 0.004270301 0.9564151 0.2919795
vn 0.9365885 0.02839993 0.3492786
vn 0.03405726 -0.9723048 0.2312216
vn 0.09857946 0.8318583 0.546163
vn -0.02425165 -0.8529012 0.5215089
vn 0.05047074 -0.9872599 -0.1508998
vn -0.9391297 -0.1031497 -0.3277129
vn 0.9828162 0.0772513 -0.1676444
vn 0.9008309 0.06138761 -0.4298086
vn -0.06149995 0.9506675 -0.3040544
vn -0.09044951 0.101914 -0.9906727
vn -0.2865627 0.6045976 -0.7431982
vn 0.5031114 -0.8583717 -0.1003837
vn -0.1183541 0.2907656 0.949446
vn -0.9935099 -0.07456411 -0.08589754
vn 0.9963456 0.06416365 0.05637858
vn 0.2721279 0.643715 -0.7152464
vn 0.2031279 -0.9555552 -0.2136665
vn -0.3012887 0.3172361 0.8992144
vn 0.8398684 0.17166 0.514931
vn -0.1392282 0.4026129 -0.9047201
vn 0.1155194 -0.9695025 -0.2161486
vn 0.01738295 0.3396174 0.9404031
vn 0.7151439 0.2316177 0.6594865
vn 0.2133564 0.6186379 -0.7561522
vn 0.1807687 -0.969943 -0.1628904
vn -0.3718525 0.3314499 0.8671026
vn 0.9997479 -0.02206075 -0.004165607
vn 0.01082759 0.6363358 -0.7713362
vn -0.0224473 -0.985957 -0.1654841
vn 0.01470547 0.3626534 0.9318081
vn 0.9960743 -0.08722363 -0.01510378
vn 0.01930682 0.3619502 0.9319975
vn -0.3569919 0.5543809 -0.7518102
vn 0.02255593 0.4349931 -0.9001513
vn -0.1112456 0.3779479 -0.9191191
vn 0.2861404 -0.9518346 -0.1101569
vn 0.1126319 -0.970786 -0.211869
vn -0.1813696 0.285229 0.9411427
vn 0.3287363 -0.9228216 -0.2008302
vn 0.05109248 0.7656056 -0.6412781
vn -0.3484319 -0.4679069 0.8121935
vn 0.4626502 0.8864057 -0.01548898
vn -0.003851502 -0.4696852 -0.8828256
vn -0.9987207 0.03873497 -0.03250603
vn 0.9979607 -0.02284075 0.0596054
vn 0.2108552 -0.4831046 0.8497941
vn 0.1491764 0.9877596 0.04557865
vn -0.1903274 -0.4955143 -0.847491
vn 0.8964391 -0.2224331 -0.3833023
vn -0.2260444 -0.231932 0.9461033
vn 0.06144727 0.9974492 0.03632434
vn 0.1314756 -0.5089961 -0.8506687
vn 0.7903268 -0.3147604 -0.5256516
vn 0.1471901 -0.4538087 0.8788588
vn 0.1321375 0.9911902 -0.009038728
vn -0.2635428 -0.5070102 -0.8206618
vn 0.9920341 0.07328643 0.1024571
vn -0.05514527 -0.478618 0.8762898
vn -0.07051288 0.9970461 -0.03045007
vn 0.1285654 -0.5301117 -0.8381245
vn 0.985198 0.139071 0.1002209
vn 0.1331361 -0.5292234 -0.8379722
vn -0.4208731 -0.4206159 0.8037089
vn -0.06383801 -0.2563199 0.9644817
vn -0.2005856 -0.2036089 0.9582844
vn 0.243191 0.9688774 -0.04620287
vn 0.05901257 0.9977568 0.03160441
vn -0.06753743 -0.4658999 -0.8822563
vn 0.2763694 0.9596305 0.05224261
vn 0.003147715 -0.6278112 0.7783594
vt -0.09760652 -0.02739667
vt -0.09551473 -0.02632322
vt -0.152636 0.08498645
vt -0.1547278 0.083913
vt -0.02261466 -0.004327898
vt -0.02189192 -0.002090597
vt -0.1409448 0.03636838
vt -0.1416676 0.03413108
vt 0.03639518 0.08568814
vt 0.03776176 0.08760135
vt -0.06404497 0.1603205
vt -0.06541154 0.1584073
vt 0.04526625 -0.05161105
vt 0.04622815 -0.05375642
vt 0.1603891 -0.002570819
vt 0.1594272 -0.0004254526
vt 0.001401826 0.05572207
vt 0.002198041 0.05350984
vt 0.1199162 0.09587859
vt 0.11912 0.09809081
vt 0.1023455 0.00540828
vt 0.1006957 0.007083359
vt 0.09859273 0.006031897
vt 0.09894289 0.003706976
vt 0.1012622 0.003321559
vt -0.1235468 0.1098065
vt -0.1212423 0.1102722
vt -0.1219518 0.1113527
vt -0.1233126 0.1110777
vt -0.1691708 0.04789193
vt -0.1683892 0.05010936
vt -0.1696806 0.05005411
vt -0.1701422 0.04874475
vt -0.1682227 0.01631836
vt -0.1692896 0.01841347
vt -0.1701402 0.01744009
vt -0.1695101 0.01620295
vt 0.06662362 -0.07790094
vt 0.066229 -0.08021872
vt 0.0674924 -0.0799455
vt 0.06772542 -0.07857688
vt 0.03609032 0.08141427
vt 0.03728018 0.07938644
vt 0.03807121 0.08040874
vt 0.0373686 0.08160616
vt -0.100896 0.00405399
vt -0.09952647 0.004281568
vt -0.0993197 0.005654411
vt -0.1005615 0.006275291
vt -0.1015357 0.005286177
vt -0.04532736 -0.00466752
vt -0.053803 -0.004844595
vt -0.05647378 -0.01289461
vt 0.008315224 0.08977579
vt 0.01004474 0.09693278
vt 0.0005847738 0.09628807
vt -0.02446439 -0.03555124
vt -0.0006548134 -0.04887619
vt -0.02093262 -0.02123231
vt 0.02147546 -0.03719844
vt 0.01734725 -0.02327286
vt -0.003362993 -0.05023406
vt -0.06654329 0.06161695
vt -0.07332168 0.06837215
vt -0.09209566 0.04752956
vt 0.03407441 0.08139382
vt 0.03661063 0.09201274
vt 0.01079326 0.09966456
vt 0.00427794 -0.0271003
vt -0.02292494 -0.02978394
vt -0.01227685 -0.06618313
vt 0.01161972 -0.050562
vt -0.0900426 0.04663106
vt -0.1074645 0.02401371
vt -0.1019332 0.0191538
vt 0.002024129 -0.05349836
vt 0.02644312 -0.06805257
vt 0.03518613 -0.03114941
vt 0.0190909 0.08575511
vt 0.04550987 0.08339167
vt 0.04663027 0.09066884
vt 0.01995514 0.09663839
vt -0.04857909 0.08984047
vt -0.05580526 0.08660898
vt -0.05453802 0.08063196
vt 0.004345363 -0.01981052
vt 0.01317354 -0.02980366
vt 0.01214445 -0.02116493
vt -0.08355287 0.04944559
vt -0.07265956 0.05124615
vt -0.07844012 0.05404803
vt -0.09402919 0.009178868
vt -0.09965753 0.01155632
vt -0.1025683 0.003357901
vt 0.02161428 -0.02583116
vt -0.005072191 -0.0294255
vt 0.001375938 -0.05314838
vt -0.007357559 -0.05259608
vt 0.0002520108 -0.02921985
vt -0.02689819 -0.02442629
vt 0.0365665 -0.03263886
vt 0.01006646 -0.0315004
vt 0.003552022 -0.05520517
vt -0.09016748 0.04832109
vt -0.08228897 0.04128594
vt -0.06428016 0.06178308
vt -0.1037309 0.01624824
vt -0.08465616 0.03732587
vt -0.0927567 0.04410418
vt 0.01839166 -0.05739459
vt 0.004335138 -0.02217104
vt 0.008914258 -0.0576871
vt 0.1033492 0.02205546
vt 0.09739193 0.01772829
vt 0.1042503 0.01127246
vt 0.05030242 -0.03044843
vt 0.04436568 -0.0679056
vt 0.05818749 -0.03560024
vt 0.03605058 -0.01501286
vt 0.02872176 -0.02297359
vt 0.04389285 -0.04995363
vt 0.07681406 -0.06387578
vt 0.08635763 -0.06054562
vt 0.08471049 -0.02963654
vt -0.04932357 -0.02303114
vt -0.04290233 -0.02858052
vt -0.03837292 -0.01454522
vt -0.08557378 0.05304133
vt -0.07797061 0.04723004
vt -0.07472065 0.05507005
vt 0.01931318 0.09950472
vt 0.01592116 0.0906835
vt 0.04112002 0.07949736
vt -0.05815854 0.07847623
vt -0.04969309 0.07892814
vt -0.05258801 0.08792476
vt -0.00815938 -0.02920839
vt -0.00552444 -0.04349198
vt 0.0001649288 -0.03962498
vt -0.1005313 -0.001058236
vt -0.09449162 -0.003246248
vt -0.09207619 0.004884029
vt -0.1000743 -0.0290824
vt -0.09630863 -0.02751936
vt -0.1003902 -0.0272995
vt 0.01633702 -0.00562162
vt 0.02011972 -0.00742996
vt 0.01680753 -0.003910454
vt 0.09698087 0.001310232
vt 0.09674792 0.003105856
vt 0.09306058 0.001110228
vt -0.0955611 0.04055076
vt -0.0931643 0.04399086
vt -0.0973419 0.0443465
vt 0.09416502 0.05001396
vt 0.09009884 0.04959691
vt 0.09230701 0.0462554
vt -0.1026852 -0.04775985
vt -0.09860941 -0.04806917
vt -0.09925531 -0.04489192
vt -0.006648061 -0.03297559
vt -0.003038286 -0.03471088
vt -0.004289379 -0.03075101
vt 0.08328523 0.01485838
vt 0.0861394 0.01863629
vt 0.08265366 0.01630639
vt 0.1150162 -0.006933051
vt 0.1112475 -0.006374927
vt 0.1118616 -0.009694835
vt -0.1087659 -0.01927816
vt -0.1074995 -0.01289201
vt -0.111423 -0.01437016
vt -0.00825035 -0.03937098
vt -0.004383252 -0.03684316
vt -0.006354337 -0.03314266
vt 0.09422238 -0.006932346
vt 0.09781365 -0.004769086
vt 0.09568354 0.0003351233
vt 0.09211463 -0.001864855
vt 0.1125798 -0.01423562
vt 0.1087128 -0.01261536
vt 0.1092431 -0.01677441
vt -0.104501 -0.03564443
vt -0.1007602 -0.03375101
vt -0.1006998 -0.03421023
vt -0.104803 -0.03334833
vt 0.001981225 -0.02894162
vt 0.004016557 -0.03260718
vt 0.00555425 -0.03087547
vt 0.00167369 -0.02928796
vt 0.07511173 0.02692901
vt 0.07852444 0.02936466
vt 0.07717909 0.03124969
vt 0.07376638 0.02881404
vt 0.08101579 0.06371222
vt 0.07699369 0.06252833
vt 0.08003002 0.05963702
vt -0.1025851 -0.02973596
vt -0.09845848 -0.03047745
vt -0.09477237 -0.009963199
vt -0.007477769 -0.04849229
vt -0.003638445 -0.05017709
vt 0.004736996 -0.03109112
vt 0.0008976316 -0.02940631
vt 0.08956904 -0.0004450649
vt 0.09313171 0.001764667
vt 0.08131633 0.01918392
vt 0.07858229 0.0172668
vt 0.07515251 0.06654841
vt 0.07146411 0.0659278
vt 0.07468352 0.06324179
vt 0.09355418 -0.008972057
vt 0.09378947 -0.01077735
vt 0.09747477 -0.008778009
vt -0.101948 -0.02428062
vt -0.09775953 -0.02446921
vt -0.09817179 -0.02274309
vt -0.1091626 -0.0211526
vt -0.1129405 -0.02164515
vt -0.1130239 -0.02340641
vt -0.112178 -0.01326718
vt -0.113365 -0.01866934
vt -0.1095831 -0.01820836
vt 0.01124062 -0.03017319
vt 0.01207534 -0.02883198
vt 0.009914496 -0.02623781
vt -0.007916219 -0.03984211
vt -0.005836153 -0.04250149
vt -0.00405103 -0.03731137
vt 0.09101804 0.005647997
vt 0.09468648 0.007678135
vt 0.0940192 0.009310226
vt 0.002990424 -0.02361239
vt 0.003287477 -0.02181623
vt -0.0003330976 -0.02010358
vt -0.08465932 -0.02300349
vt -0.08837423 -0.02256887
vt -0.09015159 -0.04354214
vt 0.1057223 -0.02571466
vt 0.1086562 -0.02288341
vt 0.1047767 -0.02417056
vt 0.01416791 -0.09641936
vt 0.01779456 -0.09431548
vt 0.01302019 -0.09506577
vt -0.08425815 -0.01401434
vt -0.0827725 -0.01297927
vt -0.08624417 -0.01062843
vt -0.07633665 0.05614006
vt -0.07981368 0.05379716
vt -0.07604615 0.05195742
vt 0.0798953 0.04758293
vt 0.0836923 0.04909636
vt 0.08065431 0.05170638
vt 0.1001372 -0.02664527
vt 0.1041248 -0.02574711
vt 0.1025766 -0.02289842
vt 0.000379931 -0.07258834
vt 0.003979561 -0.07083212
vt 9.700992E-05 -0.06935848
vt -0.0903165 -0.02193648
vt -0.08569214 -0.02295338
vt -0.08926424 -0.02075819
vt 0.0003201537 0.07275825
vt 0.00142346 0.07640485
vt -0.001950577 0.07628282
vt 0.1071883 -0.003125016
vt 0.104377 0.002747219
vt 0.1021207 -0.0007866534
vt -0.005118508 -0.06251226
vt -0.004627192 -0.05791846
vt -0.008739577 -0.05710164
vt -0.07705957 -0.002013143
vt -0.0734992 -0.004226881
vt -0.06992311 -7.65665E-06
vt -0.07350601 0.002169468
vt -0.02027222 0.06232572
vt -0.01911306 0.06635503
vt -0.02318212 0.06534424
vt 0.1001887 -0.01955524
vt 0.1030575 -0.01649765
vt 0.1032712 -0.0169086
vt 0.09912043 -0.01750047
vt -0.01078821 -0.06415316
vt -0.006684007 -0.06501015
vt -0.006988712 -0.06271439
vt -0.01072727 -0.06461231
vt -0.08708794 -0.02102579
vt -0.08351774 -0.02322411
vt -0.08230349 -0.02125209
vt -0.08587368 -0.01905376
vt 0.08945374 0.03623502
vt 0.09351453 0.03727855
vt 0.09058042 0.04027353
vt 0.09987874 -0.01935115
vt 0.1040205 -0.0186995
vt 0.100781 0.001890007
vt -0.02111801 -0.04754366
vt -0.01729682 -0.04581815
vt -0.02587466 -0.02682228
vt -0.02969589 -0.02854783
vt -0.07089902 0.003007786
vt -0.0673225 0.0008205381
vt -0.05708321 0.01921049
vt -0.06002553 0.02078941
vt 0.09305162 0.03002964
vt 0.09679143 0.0299721
vt 0.09411162 0.03319668
vt -0.07642676 -0.003749779
vt -0.077933 -0.004772366
vt -0.074489 -0.007163542
vt 0.1069732 -0.01749745
vt 0.1108184 -0.01582619
vt 0.1096895 -0.01445686
vt 0.1080363 -0.01061801
vt 0.1051936 -0.01315449
vt 0.1061175 -0.01465625
vt 0.1017931 -0.0003681108
vt 0.1041986 -0.005348664
vt 0.1068869 -0.002648989
vt -0.002644988 -0.08066189
vt -0.003097705 -0.0791484
vt -0.006472536 -0.07905076
vt -0.005763815 -0.06244604
vt -0.002388651 -0.06253134
vt -0.005259706 -0.05785362
vt -0.08856975 -0.01421506
vt -0.08509482 -0.01656107
vt -0.08394392 -0.01522525
vt 0.01323069 -0.08102538
vt 0.01195721 -0.07972435
vt 0.00843609 -0.08163311
vt 0.09624611 -0.008667669
vt 0.09250601 -0.008634658
vt 0.09299208 -0.02967748
o group1377046770
g mesh1377046770
usemtl mat18
f 18/53/13 17/52/13 16/51/13
f 21/56/14 20/55/14 19/54/14
f 16/59/15 23/58/15 22/57/15
f 26/62/16 25/61/16 24/60/16
f 26/65/17 24/64/17 22/63/17
f 25/68/18 28/67/18 27/66/18
f 26/72/19 20/71/19 29/70/19 28/69/19
f 19/75/20 20/74/20 26/73/20
f 30/78/21 19/77/21 23/76/21
f 28/82/22 29/81/22 30/80/22 27/79/22
f 17/85/23 31/84/23 25/83/23
f 31/88/24 32/87/24 25/86/24
f 32/91/25 18/90/25 24/89/25
f 32/94/26 31/93/26 17/92/26
f 26/97/27 28/96/27 25/95/27
f 16/100/28 27/99/28 23/98/28
f 23/103/29 27/102/29 30/101/29
f 22/106/30 23/105/30 26/104/30
f 26/109/31 23/108/31 19/107/31
f 21/112/32 29/111/32 20/110/32
f 33/115/33 30/114/33 29/113/33
f 33/118/34 19/117/34 30/116/34
f 21/121/35 33/120/35 29/119/35
f 33/124/36 21/123/36 19/122/36
f 16/127/37 22/126/37 18/125/37
f 18/130/38 22/129/38 24/128/38
f 27/133/39 16/132/39 25/131/39
f 25/136/40 16/135/40 17/134/40
f 32/139/41 24/138/41 25/137/41
f 17/142/42 18/141/42 32/140/42
o group1869003550
g mesh1869003550
usemtl mat20
f 4/4/1 3/3/1 2/2/1 1/1/1
f 3/8/2 6/7/2 5/6/2 2/5/2
f 6/12/3 8/11/3 7/10/3 5/9/3
f 8/16/4 10/15/4 9/14/4 7/13/4
f 10/20/5 4/19/5 1/18/5 9/17/5
f 1/25/6 2/24/6 5/23/6 7/22/6 9/21/6
f 12/29/7 11/28/7 3/27/7 4/26/7
f 11/33/8 13/32/8 6/31/8 3/30/8
f 13/37/9 14/36/9 8/35/9 6/34/9
f 14/41/10 15/40/10 10/39/10 8/38/10
f 15/45/11 12/44/11 4/43/11 10/42/11
f 15/50/12 14/49/12 13/48/12 11/47/12 12/46/12
o group1457887151
g mesh1457887151
usemtl mat8
f 36/145/43 35/144/43 34/143/43
f 35/148/44 38/147/44 37/146/44
f 39/151/45 36/150/45 34/149/45
f 34/154/46 37/153/46 38/152/46
f 39/157/47 35/156/47 36/155/47
f 40/160/48 35/159/48 36/158/48
f 40/163/49 39/162/49 35/161/49
f 42/166/50 41/165/50 39/164/50
f 44/172/52 43/171/52 40/170/52
f 43/175/53 45/174/53 40/173/53
f 45/179/54 44/178/54 41/177/54 42/176/54
f 47/186/56 46/185/56 43/184/56 44/183/56
f 46/190/57 48/189/57 45/188/57 43/187/57
f 48/194/58 47/193/58 44/192/58 45/191/58
f 49/200/60 46/199/60 47/198/60
f 49/204/61 50/203/61 48/202/61 46/201/61
f 50/208/62 51/207/62 47/206/62 48/205/62
f 34/214/64 38/213/64 39/212/64
f 35/217/65 37/216/65 34/215/65
f 36/220/66 41/219/66 40/218/66
f 40/223/67 41/222/67 44/221/67
f 40/226/68 42/225/68 39/224/68
f 45/229/69 42/228/69 40/227/69
f 41/232/70 36/231/70 39/230/70
f 35/235/71 39/234/71 38/233/71
f 47/238/72 51/237/72 49/236/72
usemtl mat18
f 42/169/51 40/168/51 41/167/51
f 45/182/55 43/181/55 44/180/55
f 48/197/59 46/196/59 47/195/59
f 50/211/63 49/210/63 51/209/63
o group1001899536
g mesh1001899536
usemtl mat8
f 54/241/73 53/240/73 52/239/73
f 53/244/74 56/243/74 55/242/74
f 57/247/75 54/246/75 52/245/75
f 52/250/76 55/249/76 56/248/76
f 57/253/77 53/252/77 54/251/77
f 58/256/78 53/255/78 54/254/78
f 58/259/79 57/258/79 53/257/79
f 60/262/80 59/261/80 57/260/80
f 62/268/82 61/267/82 58/266/82
f 61/271/83 63/270/83 58/269/83
f 63/275/84 62/274/84 59/273/84 60/272/84
f 65/282/86 64/281/86 61/280/86 62/279/86
f 64/286/87 66/285/87 63/284/87 61/283/87
f 66/290/88 65/289/88 62/288/88 63/287/88
f 67/296/90 64/295/90 65/294/90
f 67/300/91 68/299/91 66/298/91 64/297/91
f 68/304/92 69/303/92 65/302/92 66/301/92
f 52/310/94 56/309/94 57/308/94
f 53/313/95 55/312/95 52/311/95
f 54/316/96 59/315/96 58/314/96
f 58/319/97 59/318/97 62/317/97
f 58/322/98 60/321/98 57/320/98
f 63/325/99 60/324/99 58/323/99
f 59/328/100 54/327/100 57/326/100
f 53/331/101 57/330/101 56/329/101
f 65/334/102 69/333/102 67/332/102
usemtl mat18
f 60/265/81 58/264/81 59/263/81
f 63/278/85 61/277/85 62/276/85
f 66/293/89 64/292/89 65/291/89
f 68/307/93 67/306/93 69/305/93
